<svg width="36" height="38" viewBox="0 0 36 38" fill="none" xmlns="http://www.w3.org/2000/svg">
<g clip-path="url(#clip0_2150_11560)">
<path d="M10.0053 11.111V9.88782C10.0053 7.9414 10.7639 6.0747 12.1141 4.69837C13.4644 3.32204 15.2957 2.54883 17.2053 2.54883C19.1149 2.54883 20.9462 3.32204 22.2965 4.69837C23.6467 6.0747 24.4053 7.9414 24.4053 9.88782V11.111M11.2053 24.5658H23.2053M4.9677 16.9577L3.1005 34.082C3.06338 34.4239 3.09741 34.7699 3.20037 35.0975C3.30333 35.4251 3.47291 35.7268 3.69803 35.9831C3.92316 36.2393 4.19876 36.4443 4.50687 36.5846C4.81497 36.725 5.14864 36.7975 5.4861 36.7975H28.9245C29.262 36.7975 29.5956 36.725 29.9037 36.5846C30.2118 36.4443 30.4874 36.2393 30.7126 35.9831C30.9377 35.7268 31.1073 35.4251 31.2102 35.0975C31.3132 34.7699 31.3472 34.4239 31.3101 34.082L29.4429 16.9577C29.3779 16.3591 29.0986 15.806 28.6584 15.4043C28.2182 15.0025 27.6481 14.7804 27.0573 14.7805H7.3533C6.76247 14.7804 6.19238 15.0025 5.7522 15.4043C5.31202 15.806 5.03269 16.3591 4.9677 16.9577Z" stroke="#4E4E4E" stroke-width="1.86667"/>
</g>
<defs>
<clipPath id="clip0_2150_11560">
<rect width="36" height="36.695" fill="white" transform="translate(0 0.451172)"/>
</clipPath>
</defs>
</svg>
