<svg width="134" height="134" viewBox="0 0 134 134" fill="none" xmlns="http://www.w3.org/2000/svg">
<circle cx="66.883" cy="66.883" r="66.6601" stroke="#FF6600" stroke-opacity="0.9" stroke-width="0.445887"/>
<path fill-rule="evenodd" clip-rule="evenodd" d="M76.9127 51.2772H83.601C85.0789 51.2784 86.4958 51.866 87.5408 52.911C88.5858 53.956 89.1734 55.373 89.1746 56.8508V78.0003H86.9452V66.8833H46.8154V85.8335C46.8154 86.7204 47.1677 87.571 47.7948 88.1981C48.422 88.8253 49.2726 89.1776 50.1595 89.1776H75.999V91.407H50.1595C48.6819 91.4053 47.2652 90.8175 46.2204 89.7726C45.1755 88.7277 44.5877 87.3111 44.5859 85.8335V56.8508C44.5877 55.3731 45.1755 53.9565 46.2204 52.9116C47.2652 51.8668 48.6819 51.279 50.1595 51.2772H56.8478V47.9331C56.8478 47.6374 56.9653 47.3539 57.1743 47.1449C57.3834 46.9358 57.6669 46.8184 57.9625 46.8184C58.2582 46.8184 58.5417 46.9358 58.7508 47.1449C58.9598 47.3539 59.0773 47.6374 59.0773 47.9331V51.2772H74.6833V47.9331C74.6833 47.6374 74.8007 47.3539 75.0098 47.1449C75.2188 46.9358 75.5024 46.8184 75.798 46.8184C76.0937 46.8184 76.3772 46.9358 76.5862 47.1449C76.7953 47.3539 76.9127 47.6374 76.9127 47.9331V51.2772ZM46.8154 64.6538H86.9452V56.8508C86.9452 55.9639 86.5928 55.1133 85.9657 54.4861C85.3385 53.859 84.488 53.5067 83.601 53.5067H76.9127V56.8508C76.9127 57.1465 76.7953 57.43 76.5862 57.639C76.3772 57.8481 76.0937 57.9655 75.798 57.9655C75.5024 57.9655 75.2188 57.8481 75.0098 57.639C74.8007 57.43 74.6833 57.1465 74.6833 56.8508V53.5067H59.0773V56.8508C59.0773 57.1465 58.9598 57.43 58.7508 57.639C58.5417 57.8481 58.2582 57.9655 57.9625 57.9655C57.6669 57.9655 57.3834 57.8481 57.1743 57.639C56.9653 57.43 56.8478 57.1465 56.8478 56.8508V53.5067H50.1595C48.3091 53.5067 46.8154 55.0048 46.8154 56.8508V64.6538Z" fill="#FF1818"/>
<path d="M89.9297 80.0703L79.9297 90.0703M89.9297 90.0703L79.9297 80.0703" stroke="#FF1818" stroke-width="2" stroke-linecap="round" stroke-linejoin="round"/>
</svg>
