<svg width="163" height="162" viewBox="0 0 163 162" fill="none" xmlns="http://www.w3.org/2000/svg">
<ellipse cx="81.5" cy="80.8609" rx="80.8608" ry="81.5" transform="rotate(-90 81.5 80.8609)" fill="white"/>
<g clip-path="url(#clip0_2739_9628)">
<path fill-rule="evenodd" clip-rule="evenodd" d="M130.769 45.0814C132.23 46.5423 133.05 48.5235 133.05 50.5892C133.05 52.655 132.23 54.6361 130.769 56.0971L72.3775 114.489C71.6058 115.261 70.6897 115.873 69.6814 116.291C68.673 116.709 67.5923 116.924 66.5009 116.924C65.4095 116.924 64.3287 116.709 63.3204 116.291C62.3121 115.873 61.396 115.261 60.6243 114.489L31.6127 85.4826C30.8686 84.764 30.2751 83.9043 29.8669 82.9539C29.4586 82.0034 29.2437 80.9811 29.2347 79.9467C29.2257 78.9123 29.4228 77.8865 29.8145 76.9291C30.2062 75.9716 30.7847 75.1018 31.5161 74.3704C32.2476 73.6389 33.1174 73.0604 34.0748 72.6687C35.0323 72.277 36.0581 72.0799 37.0925 72.0889C38.1269 72.0979 39.1492 72.3128 40.0996 72.7211C41.0501 73.1294 41.9097 73.7229 42.6284 74.4669L66.4983 98.3368L119.749 45.0814C120.472 44.3574 121.331 43.7832 122.277 43.3913C123.222 42.9995 124.236 42.7979 125.259 42.7979C126.282 42.7979 127.296 42.9995 128.241 43.3913C129.187 43.7832 130.046 44.3574 130.769 45.0814Z" fill="white"/>
<path fill-rule="evenodd" clip-rule="evenodd" d="M72.3571 92.634L66.7014 98.2902L42.8315 74.4203C42.1129 73.6763 41.2532 73.0828 40.3028 72.6745C39.3523 72.2662 38.33 72.0513 37.2956 72.0423C36.2612 72.0333 35.2354 72.2304 34.278 72.6221C33.3205 73.0138 32.4507 73.5923 31.7193 74.3238C30.9878 75.0552 30.4093 75.925 30.0176 76.8825C29.6259 77.8399 29.4288 78.8657 29.4378 79.9001C29.4468 80.9345 29.6617 81.9568 30.07 82.9073C30.4783 83.8577 31.0718 84.7174 31.8158 85.436L60.8274 114.442C61.5991 115.214 62.5152 115.827 63.5236 116.244C64.5319 116.662 65.6126 116.877 66.704 116.877C67.7954 116.877 68.8762 116.662 69.8845 116.244C70.7971 115.866 71.6342 115.329 72.3571 114.658V92.634Z" fill="#0DA800"/>
<path fill-rule="evenodd" clip-rule="evenodd" d="M130.98 44.9271C132.441 46.388 133.261 48.3692 133.261 50.4349C133.261 52.5007 132.441 54.4818 130.98 55.9428L72.5884 114.335C71.8167 115.107 70.9006 115.719 69.8923 116.137C68.884 116.554 67.8032 116.769 66.7118 116.769C65.6204 116.769 64.5397 116.554 63.5314 116.137C62.523 115.719 61.6069 115.107 60.8352 114.335L31.8236 85.3283C31.0796 84.6097 30.4861 83.75 30.0778 82.7996C29.6695 81.8491 29.4546 80.8268 29.4456 79.7924C29.4366 78.758 29.6337 77.7322 30.0254 76.7748C30.4172 75.8173 30.9956 74.9475 31.7271 74.2161C32.4585 73.4846 33.3284 72.9061 34.2858 72.5144C35.2432 72.1227 36.269 71.9256 37.3034 71.9346C38.3379 71.9436 39.3601 72.1585 40.3106 72.5668C41.261 72.9751 42.1207 73.5686 42.8393 74.3126L66.7092 98.1825L119.959 44.9271C120.683 44.2031 121.542 43.6289 122.487 43.237C123.433 42.8452 124.446 42.6436 125.47 42.6436C126.493 42.6436 127.507 42.8452 128.452 43.237C129.398 43.6289 130.257 44.2031 130.98 44.9271Z" fill="#0DA800"/>
</g>
<defs>
<clipPath id="clip0_2739_9628">
<rect width="124.647" height="124.647" fill="white" transform="translate(18.8672 18.5371)"/>
</clipPath>
</defs>
</svg>
