<svg width="23" height="13" viewBox="0 0 23 13" fill="none" xmlns="http://www.w3.org/2000/svg">
<path d="M22.23 0.600773C21.912 0.296991 21.4807 0.126336 21.031 0.126336C20.5813 0.126336 20.1501 0.296991 19.832 0.600773L11.4374 8.62185L3.04267 0.600771C2.72283 0.305599 2.29444 0.14227 1.84978 0.145962C1.40512 0.149654 0.979768 0.320071 0.665336 0.62051C0.350904 0.92095 0.172551 1.32737 0.168687 1.75224C0.164823 2.17711 0.335759 2.58643 0.644679 2.89204L10.2384 12.0588C10.5564 12.3625 10.9877 12.5332 11.4374 12.5332C11.887 12.5332 12.3183 12.3625 12.6364 12.0588L22.23 2.89205C22.548 2.58817 22.7266 2.17609 22.7266 1.74641C22.7266 1.31673 22.548 0.904647 22.23 0.600773Z" fill="#FF6600"/>
</svg>
