<svg width="23" height="13" viewBox="0 0 23 13" fill="none" xmlns="http://www.w3.org/2000/svg">
<path d="M22.0621 0.474796C21.744 0.171015 21.3128 0.000359426 20.8631 0.000359387C20.4134 0.000359348 19.9821 0.171015 19.6641 0.474796L11.2694 8.49588L2.87471 0.474795C2.55486 0.179622 2.12647 0.0162927 1.68181 0.0199853C1.23715 0.0236769 0.811801 0.194095 0.497369 0.494534C0.182937 0.794972 0.00458241 1.20139 0.000718084 1.62626C-0.00314624 2.05113 0.16779 2.46045 0.476712 2.76607L10.0704 11.9328C10.3884 12.2366 10.8197 12.4072 11.2694 12.4072C11.7191 12.4072 12.1504 12.2366 12.4684 11.9328L22.0621 2.76607C22.38 2.4622 22.5586 2.05011 22.5586 1.62043C22.5586 1.19076 22.38 0.77867 22.0621 0.474796Z" fill="white"/>
</svg>
