<svg width="78" height="65" viewBox="0 0 78 65" fill="none" xmlns="http://www.w3.org/2000/svg">
<path d="M59.4746 0H18.2159C16.6067 0 15.0634 0.535015 13.9256 1.48735C12.7877 2.43968 12.1484 3.73132 12.1484 5.07812V59.9219C12.1484 61.2687 12.7877 62.5603 13.9256 63.5127C15.0634 64.465 16.6067 65 18.2159 65H59.4746C61.0838 65 62.6271 64.465 63.7649 63.5127C64.9028 62.5603 65.5421 61.2687 65.5421 59.9219V5.07812C65.5421 3.73132 64.9028 2.43968 63.7649 1.48735C62.6271 0.535015 61.0838 0 59.4746 0ZM59.4746 59.9219H18.2159V5.07812H59.4746V59.9219Z" fill="#FF6803"/>
<path d="M38.8441 54.8438C40.9887 54.8438 42.7273 53.4796 42.7273 51.7969C42.7273 50.1141 40.9887 48.75 38.8441 48.75C36.6995 48.75 34.9609 50.1141 34.9609 51.7969C34.9609 53.4796 36.6995 54.8438 38.8441 54.8438Z" fill="#FF6803"/>
</svg>
