<svg width="86" height="84" viewBox="0 0 86 84" fill="none" xmlns="http://www.w3.org/2000/svg">
<path d="M42.1853 71.7234C42.0065 72.3159 42.082 72.9587 42.3951 73.5103C42.7083 74.0619 43.2335 74.4772 43.8551 74.6648C44.4768 74.8524 45.144 74.7969 45.71 74.5106C46.276 74.2243 46.6945 73.7306 46.8733 73.1381L80.3724 28.0636C80.8951 27.3585 81.1975 26.5213 81.2452 25.6472C81.2929 24.7731 81.084 23.8971 80.6422 23.1189C80.2004 22.3407 79.5434 21.6913 78.7459 21.2448C77.9485 20.7982 77.0425 20.5722 76.131 20.5926L17.7041 22.168C17.0824 21.9804 16.4152 22.0358 15.8492 22.3221C15.2832 22.6084 14.8647 23.1021 14.6859 23.6946C14.5071 24.2871 14.5826 24.9299 14.8958 25.4815C15.2089 26.0331 15.7341 26.4484 16.3558 26.636L40.193 43.5791L42.1853 71.7234Z" stroke="white" stroke-width="2.86816" stroke-linecap="round" stroke-linejoin="round"/>
</svg>
