<svg width="136" height="136" viewBox="0 0 136 136" fill="none" xmlns="http://www.w3.org/2000/svg">
<circle cx="68.0609" cy="67.517" r="67.2734" stroke="#FF6600" stroke-opacity="0.9" stroke-width="0.449989"/>
<path d="M96.52 36H45.4801C44.5571 36 43.672 36.4535 43.0193 37.2607C42.3667 38.0679 42.0001 39.1628 42.0001 40.3043V97.6957C41.9959 98.5164 42.1834 99.3211 42.5398 100.013C42.8963 100.706 43.4067 101.256 44.0098 101.598C44.4708 101.861 44.9723 101.998 45.4801 102C46.2972 101.999 47.0875 101.639 47.7102 100.985L47.7276 100.963L57.0481 90.8589C57.2599 90.6384 57.5283 90.5189 57.805 90.5217H96.52C97.443 90.5217 98.3281 90.0682 98.9807 89.261C99.6334 88.4538 100 87.359 100 86.2174V40.3043C100 39.1628 99.6334 38.0679 98.9807 37.2607C98.3281 36.4535 97.443 36 96.52 36ZM97.68 86.2174C97.68 86.5979 97.5578 86.9629 97.3402 87.2319C97.1227 87.501 96.8277 87.6522 96.52 87.6522H57.805C56.9774 87.6551 56.1773 88.0197 55.5459 88.6816L46.2196 98.7969C46.0502 98.9702 45.8445 99.0804 45.6264 99.1147C45.4083 99.149 45.1868 99.106 44.9878 98.9906C44.7887 98.8752 44.6202 98.6922 44.502 98.4629C44.3838 98.2337 44.3207 97.9676 44.3201 97.6957V40.3043C44.3201 39.9238 44.4423 39.5589 44.6598 39.2898C44.8774 39.0207 45.1724 38.8696 45.4801 38.8696H96.52C96.8277 38.8696 97.1227 39.0207 97.3402 39.2898C97.5578 39.5589 97.68 39.9238 97.68 40.3043V86.2174Z" fill="#FF6803"/>
<path d="M69.8614 71.557V71.4227C69.8763 69.9984 70.0254 68.8649 70.3088 68.0223C70.5922 67.1796 70.9949 66.4973 71.5169 65.9753C72.0389 65.4532 72.6653 64.9723 73.3961 64.5323C73.8361 64.2638 74.2313 63.9469 74.5818 63.5815C74.9323 63.2086 75.2082 62.7798 75.4095 62.2951C75.6183 61.8104 75.7227 61.2735 75.7227 60.6844C75.7227 59.9536 75.5512 59.3197 75.2082 58.7828C74.8652 58.2459 74.4065 57.832 73.8323 57.5412C73.2581 57.2503 72.6205 57.1049 71.9196 57.1049C71.3081 57.1049 70.7189 57.2317 70.1522 57.4852C69.5854 57.7388 69.1119 58.1377 68.7316 58.6821C68.3513 59.2265 68.1313 59.9386 68.0716 60.8186H65.2528C65.3125 59.5509 65.6406 58.4658 66.2372 57.5635C66.8412 56.6612 67.6354 55.9714 68.6197 55.4941C69.6115 55.0169 70.7115 54.7783 71.9196 54.7783C73.232 54.7783 74.373 55.0393 75.3424 55.5613C76.3193 56.0833 77.0725 56.7992 77.6019 57.7089C78.1389 58.6187 78.4073 59.6553 78.4073 60.8186C78.4073 61.6389 78.2806 62.3809 78.027 63.0446C77.7809 63.7083 77.423 64.3011 76.9532 64.8231C76.4908 65.3451 75.9315 65.8075 75.2753 66.2102C74.6191 66.6203 74.0933 67.0528 73.6981 67.5077C73.3029 67.9551 73.0158 68.4883 72.8368 69.1073C72.6578 69.7262 72.5609 70.498 72.546 71.4227V71.557H69.8614ZM71.2931 78.179C70.7413 78.179 70.2678 77.9814 69.8726 77.5861C69.4773 77.1909 69.2797 76.7174 69.2797 76.1655C69.2797 75.6137 69.4773 75.1402 69.8726 74.7449C70.2678 74.3497 70.7413 74.1521 71.2931 74.1521C71.845 74.1521 72.3185 74.3497 72.7137 74.7449C73.109 75.1402 73.3066 75.6137 73.3066 76.1655C73.3066 76.5309 73.2134 76.8665 73.0269 77.1722C72.848 77.478 72.6056 77.7241 72.2999 77.9105C72.0016 78.0895 71.666 78.179 71.2931 78.179Z" fill="#FF6803"/>
</svg>
