<svg width="44" height="46" viewBox="0 0 44 46" fill="none" xmlns="http://www.w3.org/2000/svg">
<path d="M30.5938 5.78516C27.1408 5.78516 24.0762 7.17444 22 9.56232C19.9238 7.17444 16.8592 5.78516 13.4062 5.78516C10.3988 5.78887 7.5156 7.00827 5.38903 9.1759C3.26245 11.3435 2.06614 14.2824 2.0625 17.3479C2.0625 30.0213 20.2486 40.1475 21.022 40.5732C21.3226 40.7382 21.6586 40.8246 22 40.8246C22.3414 40.8246 22.6774 40.7382 22.978 40.5732C23.7514 40.1475 41.9375 30.0213 41.9375 17.3479C41.9339 14.2824 40.7376 11.3435 38.611 9.1759C36.4844 7.00827 33.6012 5.78887 30.5938 5.78516ZM29.6502 30.7256C27.2564 32.7961 24.6975 34.6596 22 36.2968C19.3025 34.6596 16.7436 32.7961 14.3498 30.7256C10.6253 27.4688 6.1875 22.5021 6.1875 17.3479C6.1875 15.3964 6.94804 13.5248 8.30182 12.1449C9.6556 10.765 11.4917 9.98979 13.4062 9.98979C16.4656 9.98979 19.0266 11.6366 20.0905 14.289C20.2453 14.6757 20.5096 15.0066 20.8497 15.2395C21.1898 15.4724 21.5903 15.5968 22 15.5968C22.4097 15.5968 22.8102 15.4724 23.1503 15.2395C23.4904 15.0066 23.7547 14.6757 23.9095 14.289C24.9734 11.6366 27.5344 9.98979 30.5938 9.98979C32.5083 9.98979 34.3444 10.765 35.6982 12.1449C37.052 13.5248 37.8125 15.3964 37.8125 17.3479C37.8125 22.5021 33.3747 27.4688 29.6502 30.7256Z" fill="#4E4E4E"/>
</svg>
